<?xml version="1.0" encoding="utf-8"?>
<!-- Generator: Adobe Illustrator 27.2.0, SVG Export Plug-In . SVG Version: 6.00 Build 0)  -->
<svg version="1.1" id="Layer_1" xmlns="http://www.w3.org/2000/svg" xmlns:xlink="http://www.w3.org/1999/xlink" x="0px" y="0px"
	 viewBox="0 0 943.1 704.1" style="enable-background:new 0 0 943.1 704.1;" xml:space="preserve">
<style type="text/css">
	.st0{fill:none;}
	.st1{fill:#533C32;}
	.st2{fill:#84685C;}
	.st3{fill:#5F4236;}
	.st4{fill:#4B3027;}
	.st5{fill:#15080C;}
	.st6{fill:#63595B;}
	.st7{fill:#591723;}
	.st8{fill:#49262E;}
	.st9{fill:#FFBC5C;}
	.st10{fill:#4D1F28;}
	.st11{fill:#42151D;}
	.st12{fill:url(#SVGID_1_);}
	.st13{fill:#4E373B;}
	.st14{fill:#371D21;}
	.st15{opacity:0.13;fill:#FFFFFF;}
	.st16{fill:#130407;}
	.st17{fill:#847D84;}
	.st18{fill:#787078;}
	.st19{fill:#2E1513;}
</style>
<g>
	<rect x="0" class="st0" width="943.1" height="704.1"/>
	<g>
		<path class="st1" d="M605.4,461.6l52.5-9.7l-21.6-13.9c0,0,49.4-8.3,49.7-16c0.3-7.7-8.7-9.7-8.7-9.7s-2.8-8.3,5.6-9.4
			c8.3-1,51.8-11.1,52.2-17.4s48.3,8.7,53.9,3.5c0,0,12.5,8,23,3.8c10.4-4.2,22.6,4.2,25,4.2c2.4,0,22.7-7.3,19.3-15
			c0,0,29.7-23.3,37.3-24.7c7.7-1.4,53.2-21.2,49-27.5c-4.2-6.3-50.8-35.8-60.5-36.5s-40.7-27.8-67.1-28.9
			c-26.4-1-234.1,3.5-255,22.3c-20.9,18.8,20.2,116.5,20.2,116.5"/>
		<g>
			<path class="st2" d="M624,386.3c-1,14.3-3.2,30.3-7.2,47.9c-0.6,2.6-1.2,5.3-1.9,7.9c-0.7,2.8-1.3,5.6-1.8,8.4
				c-3.5,20.1-23.2,111.3-94.7,123.4c-59.3,10-93.4-6.5-107.2-15.8c-3.9-2.6-7.9-5.1-12.1-7.3c-12.2-6.3-40.4-29.9-55.5-42.8
				c-6-5.1-12.5-9.7-19.4-13.6c-34.1-19.3-151.7-92-199-156c-9.2-12.4-15.7-24.5-18.5-35.8c-0.8-3.4-1.9-6.8-3-10.1
				c-4.8-14.1-15.4-48.7-13.4-71.9c2.6-29.7,5.7-58.9,5.7-58.9l24.5,4.2l24.4-0.9l54.6-2l77.3-2.8c2.7,1.2,5.3,1.8,7.9,1.5
				c19.9-2.4,77.4,5.3,121,23.3c10.2,4.2,19.7,9,27.7,14.3v0c4.5,3,8.6,6.2,12.1,9.5c19.8,19.1,65.5,40.5,102.6,55.9
				C596.7,284.8,627.5,333.7,624,386.3z"/>
			<path class="st3" d="M624,386.3c-1,14.3-3.2,30.3-7.2,47.9c-12.5-4.5-35.6-14.6-60.1-33.8c-36.2-28.5-72.7-7.6-89.4-4.2
				c-16.7,3.5-87.3-76.9-87.3-76.9l-27.3-82.6l53-51.9c10.2,4.2,19.7,9,27.7,14.3v0c4.5,3,8.6,6.2,12.1,9.5
				c19.8,19.1,65.5,40.5,102.6,55.9C596.7,284.8,627.5,333.7,624,386.3z"/>
			<path class="st4" d="M448.9,272.7c6.7,8.6,3.5,22.7,3.5,22.7c0.1,10.8-18.8,14.2-18.8,14.2c2.6,8.9-17,20-17,20s0.7,5.7-1.8,10.9
				c-2.5,5.2-27.1-2.1-27.1-2.1s17.2,19.8,0,20.9c-14.8,0.9-15.7-4.4-15.7-5.9c-0.3,2.5-2.1,15.7-7.3,15.1
				c-5.5-0.6-20.9-14.1-21.9-15c0.5,0.7,7.1,9.9-8.9,22.4c-16.7,13-78.7-40.4-81.9-41.7c-66.3-26.5-105.6-11.8-126.8,4.1
				c-9.2-12.4-15.7-24.5-18.5-35.8c-0.8-3.4-1.9-6.8-3-10.1c-4.8-14.1-15.4-48.7-13.4-71.9c2.6-29.7,5.7-58.9,5.7-58.9l24.5,4.2
				l24.4-0.9c2.3,9.7,12.1,28.4,54.6-2l77.3-2.8c2.7,1.2,5.3,1.8,7.9,1.5c24.5-3,106.4,9.5,148.6,37.6v0
				c-12.2,5.8-7.9,41.7-1.3,40.9c6.6-0.8,21.1,9.5,21.1,9.5C463.1,264.6,448.9,272.7,448.9,272.7z"/>
			<path class="st5" d="M96,161.6c0,0,9.5-18.9-1-29c-10.5-10.1-42-90-42-90s41.2-21.9,62.9-11.2l0.8,3.9c0,0,24,13.2,35.4,12.9
				c11.4-0.3,47.8,69.6,28.5,102.4S98.4,165.5,96,161.6z"/>
			<path class="st6" d="M404,552.4c8.7-1.4-65.2,45.9-65.2,45.9l-89.6,21.6c0,0-30.6,4.5-31.8,20.9c0,0-0.7,6.3,4.9,0
				s17.2-8.7,17.2-8.7l42.4-5.9c0,0,35.1,0.6,37.3,4.5c2.2,3.9-15.3,7.6-15.3,7.6s-11.8,10.6-8.7,20.7c0,0,2.9,2.3,2.9-4.3
				c0-6.7,71.5-37.2,89.2-20c0,0,23.9,4.4,5.9-13.6l-18.6-7.8l47.9-48.9"/>
			<path class="st7" d="M129.3,42.4c0,0,18.3-3.8,6.2-15.2c0,0,0.9-7.7-8.1-9.7c0,0-0.1-5.1-6.3-4.6c0,0-2.1-5-8.3-3.3
				c0,0-10.2-21.7-20.5-0.4c0,0-8-11.6-19.4,0.9C61.3,22.8,53.4,6.5,53.4,6.5s-10.7-5-8,12.7c0,0-4.2,0.4-4.8,7.6
				c0,0-6.7-3.5-8.3,4.4L33,42.9c0,0-14.4,11.2-13.6,25.2c0,0-0.3,6.7,6.9,3.6c0,0,15.1,0.1,19-4.8c3.9-4.9,8.9-10.6,7.8-14.6
				c-1-4,7.7-5.7,7.7-5.7s1-12.6,12.4-9.6c0,0,13.8-10.6,28.9-1C102.1,36,116,32.1,129.3,42.4z"/>
			<path class="st8" d="M109,67.2c0,0,14.9-6.3,17.3,4.6c2.4,11-4.7,22.8-4.7,22.8S92,105.3,93.9,98.5S109,67.2,109,67.2z"/>
			<path class="st9" d="M50.3,96L31,71.5l-11.6-2.7v4.8c0,0-23.2,5.9-18.8,30.5C0.6,104.1,14.6,91.1,50.3,96z"/>
			<path class="st10" d="M95.3,124.7c8.1-4.5,17.5-58.5,17.5-58.5c-1.5-3.7-28.2-18.6-39.2-14.8c-11,3.8-17.6-6-17.6-6L28.8,72.6
				L50.3,96 M50.3,96c-1.7,13.9-6.1,12.3,16.9,29.7c23,17.4,28.1-1,28.1-1 M92,73.1c-0.5,1.2-2.6,4.4-11.7,5.7c0,0-6.3,1.2-12.4-6.2
				c0,0,15-16.5,24-0.4C92.1,72.5,92.1,72.8,92,73.1z"/>
			<path class="st11" d="M95.3,124.7c2.5-21.5-45-28.7-45-28.7c-1.7,13.9-6.1,12.3,16.9,29.7C90.1,143.1,95.3,124.7,95.3,124.7"/>
			<linearGradient id="SVGID_1_" gradientUnits="userSpaceOnUse" x1="98.9006" y1="106.6822" x2="124.791" y2="115.597">
				<stop  offset="0" style="stop-color:#4F212D"/>
				<stop  offset="1" style="stop-color:#47111F"/>
			</linearGradient>
			<path class="st12" d="M122.3,90.4c0,0,12.7,1.6,1,28.5c0,0-8.5,14.4-18.8,13.6c-10.3-0.9-13-11-4.3-27.5S122.3,90.4,122.3,90.4z"
				/>
			<g>
				<path class="st13" d="M80.3,78.8c9-1.3,11.2-4.5,11.7-5.7c0.1-0.3,0.1-0.6-0.1-0.9c-9-16.2-24,0.4-24,0.4
					C74.1,80.1,80.3,78.8,80.3,78.8z"/>
				<path class="st14" d="M82.4,65.1l-4.8,13.6c0,0,0,0,0,0c-2.4-0.4-6.1-1.8-9.7-6.2C67.9,72.6,75,64.8,82.4,65.1
					C82.4,65.1,82.4,65.1,82.4,65.1z"/>
				<path class="st15" d="M80.3,78.8c9-1.3,11.2-4.5,11.7-5.7c0.1-0.3,0.1-0.6-0.1-0.9c-9-16.2-24,0.4-24,0.4
					C74.1,80.1,80.3,78.8,80.3,78.8z"/>
				<g>
					
						<image style="overflow:visible;opacity:0.75;" width="127" height="83" xlink:href="80B79006.png"  transform="matrix(0.24 0 0 0.24 62.7065 61.036)">
					</image>
				</g>
				<path class="st16" d="M80.6,73.9c0,0,5.9-1.2,4.6-5.5c0,0-1-1.8-4.6-1c0,0-1.3,0.5-1.1-1.5C79.6,64,70.4,70.4,80.6,73.9z"/>
			</g>
			<path class="st17" d="M371.9,654.2c0,0,4.6-9.5,18.4-2.6c13.8,6.9,64,19,72.5,17.9c8.5-1.2-11.7,16.2-11.7,16.2l-16-1
				C435,684.6,424.5,670.3,371.9,654.2z"/>
			<path class="st18" d="M501.6,576.2c0,0-41.5,101-46.4,102.6c-5,1.6-73.4,9-71.9,23.3c0,0,0.3,4.4,6.9,0
				c6.7-4.4,60.9-15.7,70.8-11.5c0,0,10.6-9.4,21.7-12.6c5.2-1.5,10.8-0.5,15.3,2.5l2.9,1.9c1.5,1,3.5-0.4,2.9-2.2l-4.4-13.7
				c0,0-5.9-13.3,4.2-19.7c10-6.4,8.5-8.2,8.5-8.2s10.4-1.4,11.7-0.5c1.3,0.9,8.9-7.4-9.4-6.8c0,0-8.9,0.5,1-19
				c0,0,16.5-38.9,25.9-49.2"/>
			<path class="st19" d="M287.4,162.2c-11.1-2.7-50,26.1-72.8,44c-13.4,11.9-17.2,22.6-18.2,28.7c-0.4,7-0.6,14.1-0.5,15.6
				c0.3,3.1-25.8,21.4-25.8,21.4s-4.7-15.1-11.5-19.6c-6.8-4.4-14.1,17.7-14.1,17.7l-18.3-36c0,0-10.6-65.7-30.3-72.5
				C202,178.3,152,48.2,152,48.2c46.2,0.6,68.3,21.7,88.7,63.2C249.7,129.9,287.4,162.2,287.4,162.2z"/>
		</g>
	</g>
</g>
</svg>
